HIERARCHY
ROOT Hips
{
	OFFSET 0.000000 0.000000 0.000000 
	CHANNELS 6 Xposition Yposition Zposition Zrotation Yrotation Xrotation
	JOINT LeftUpLeg
	{
		OFFSET 1.363060 -1.794630 0.839290 
		CHANNELS 3 Zrotation Yrotation Xrotation
		JOINT LeftLeg
		{
			OFFSET 2.448110 -6.726130 0.000000 
			CHANNELS 3 Zrotation Yrotation Xrotation
			JOINT LeftFoot
			{
				OFFSET 2.562200 -7.039590 0.000000 
				CHANNELS 3 Zrotation Yrotation Xrotation
				JOINT LeftToeBase
				{
					OFFSET 0.157640 -0.433110 2.322550 
					CHANNELS 3 Zrotation Yrotation Xrotation
					End Site
					{
						OFFSET 0.000000 0.000000 0.000000 
					}
				}
			}
		}
	}
	JOINT RightUpLeg
	{
		OFFSET -1.305520 -1.794630 0.839290 
		CHANNELS 3 Zrotation Yrotation Xrotation
		JOINT RightLeg
		{
			OFFSET -2.542530 -6.985550 0.000000 
			CHANNELS 3 Zrotation Yrotation Xrotation
			JOINT RightFoot
			{
				OFFSET -2.568260 -7.056230 0.000000 
				CHANNELS 3 Zrotation Yrotation Xrotation
				JOINT RightToeBase
				{
					OFFSET -0.164730 -0.452590 2.363150 
					CHANNELS 3 Zrotation Yrotation Xrotation
					End Site
					{
						OFFSET 0.000000 0.000000 0.000000 
					}
				}
			}
		}
	}
	JOINT Spine
	{
		OFFSET 0.028270 2.035590 -0.193380 
		CHANNELS 3 Zrotation Yrotation Xrotation
		JOINT Spine1
		{
			OFFSET 0.056720 2.048850 -0.042750 
			CHANNELS 3 Zrotation Yrotation Xrotation
			JOINT Neck1
			{
				OFFSET -0.054170 1.746240 0.172020 
				CHANNELS 3 Zrotation Yrotation Xrotation
				JOINT Head
				{
					OFFSET 0.104070 1.761360 -0.123970 
					CHANNELS 3 Zrotation Yrotation Xrotation
					End Site
					{
						OFFSET 0.000000 0.000000 0.000000 
					}
				}
			}
			JOINT LeftArm
			{
				OFFSET 3.362410 1.200890 -0.311210 
				CHANNELS 3 Zrotation Yrotation Xrotation
				JOINT LeftForeArm
				{
					OFFSET 4.983000 -0.000000 -0.000000 
					CHANNELS 3 Zrotation Yrotation Xrotation
					JOINT LeftHand
					{
						OFFSET 3.483560 -0.000000 -0.000000 
						CHANNELS 3 Zrotation Yrotation Xrotation
						JOINT LeftHandIndex1
						{
							OFFSET 0.715260 -0.000000 -0.000000 
							CHANNELS 3 Zrotation Yrotation Xrotation
							End Site
							{
								OFFSET 0.000000 0.000000 0.000000 
							}
						}
					}
				}
			}
			JOINT RightArm
			{
				OFFSET -3.136600 1.374050 -0.404650 
				CHANNELS 3 Zrotation Yrotation Xrotation
				JOINT RightForeArm
				{
					OFFSET -5.241900 -0.000000 -0.000000 
					CHANNELS 3 Zrotation Yrotation Xrotation
					JOINT RightHand
					{
						OFFSET -3.444170 -0.000000 -0.000000 
						CHANNELS 3 Zrotation Yrotation Xrotation
						JOINT RightHandIndex1
						{
							OFFSET -0.622530 -0.000000 -0.000000 
							CHANNELS 3 Zrotation Yrotation Xrotation
							End Site
							{
								OFFSET 0.000000 0.000000 0.000000 
							}
						}
					}
				}
			}
		}
	}
}
MOTION
Frames: 7
Frame Time: 0.041667
0.835723 22.335747 -0.774258 -2.041886 -4.117081 7.341352 -12.550075 -5.316806 -10.956786 -0.046578 3.638747 10.826036 -6.485494 35.769662 20.490063 0.706000 5.370400 14.968100 20.139099 15.778969 -4.801073 -1.498589 -3.937024 13.944451 7.855461 -34.537704 15.650553 -0.372200 -3.918600 10.847800 -1.619934 2.263200 3.125706 0.184635 1.597569 -10.261064 8.874080 -3.911049 17.261766 3.337600 -1.276600 6.465900 -51.331180 16.808034 42.962217 38.808034 -47.121025 -18.762491 -0.177219 -0.769741 -0.823963 -7.125000 0.000000 0.000000 56.587717 0.343128 -2.507127 -32.169367 40.222380 -14.054230 0.207631 1.147177 15.448412 7.125000 0.000000 0.000000 
0.825543 22.562013 -0.830921 -2.137585 -3.949625 6.006621 -12.514233 -4.344064 -11.065657 0.200408 4.177606 12.265522 -4.871260 32.626869 24.493799 0.632000 5.086500 14.155400 20.571092 14.844042 -4.518585 -1.838437 -4.505422 15.452809 6.381199 -32.385912 20.537948 -0.269200 -3.337400 9.219600 -1.527155 2.201547 5.629081 0.127045 1.581573 -11.416266 9.296754 -3.935097 15.706160 3.444300 -1.284800 6.151200 -53.467698 15.868567 39.553066 37.390503 -46.242666 -17.644567 -0.193681 -0.777099 -0.538590 -7.125000 0.000000 0.000000 57.277534 0.738385 -2.786658 -31.229156 39.440042 -13.329581 0.239849 1.111877 16.171199 7.125000 0.000000 0.000000 
0.819300 22.771568 -0.888543 -1.954627 -3.718831 4.895524 -12.687611 -3.436570 -11.251128 0.445903 4.642762 13.397241 -3.699218 31.483170 28.327784 0.423500 4.176800 11.574500 20.628266 14.055688 -4.515143 -2.198289 -5.090469 17.083946 4.979460 -30.300930 24.782355 -0.202800 -2.899500 7.999100 -1.798835 2.149939 7.665663 0.231296 1.581080 -12.386130 9.517247 -3.917859 14.030208 3.506800 -1.295600 5.784800 -55.536408 14.770051 36.319629 35.774696 -45.180611 -16.392401 -0.212370 -0.786975 -0.098493 -7.125000 0.000000 0.000000 57.928691 0.898214 -2.878682 -30.395865 38.719292 -12.690513 0.270682 1.099727 16.609376 7.125000 0.000000 0.000000 
0.812385 22.974400 -0.949432 -1.739108 -3.504573 4.037375 -12.825606 -3.075385 -11.363518 0.616357 4.951042 14.164272 -2.899814 30.774274 30.853018 0.250300 3.219300 8.889800 20.642101 13.589183 -4.678096 -2.563083 -5.644659 18.683338 4.243569 -29.711642 27.296806 -0.045900 -1.383300 3.804000 -2.123271 2.113743 9.170549 0.399050 1.588137 -13.253293 9.366765 -3.933968 12.925364 3.461700 -1.329100 5.544800 -57.449492 13.731527 33.267736 34.206750 -44.093227 -15.203894 -0.226934 -0.801238 0.404459 -7.125000 0.000000 0.000000 58.588397 0.832634 -2.751691 -29.678786 38.090831 -12.158825 0.291361 1.107224 16.848095 7.125000 0.000000 0.000000 
0.807199 23.173295 -1.009839 -1.445305 -3.359558 3.483202 -12.974200 -3.394067 -11.327810 0.685323 5.078394 14.496040 -2.403363 30.191647 32.290409 0.186600 2.781900 7.672200 20.535624 13.433670 -5.059225 -2.902179 -6.135868 20.106465 3.764301 -29.697604 29.097213 -0.027200 -1.064200 2.925500 -2.599371 2.101399 10.261726 0.600404 1.605993 -13.918057 9.320264 -3.983086 12.227975 3.437500 -1.365600 5.390400 -59.164914 12.768942 30.412636 32.815196 -43.067405 -14.164774 -0.245175 -0.810685 1.011927 -7.125000 0.000000 0.000000 59.192852 0.722614 -2.434838 -28.948458 37.425357 -11.623532 0.316419 1.111756 16.939018 7.125000 0.000000 0.000000 
0.802109 23.364506 -1.050464 -1.102854 -3.353661 3.140402 -13.165559 -4.032356 -11.109292 0.656634 5.026971 14.437157 -2.231501 29.530541 32.530613 0.196000 2.850700 7.863200 20.338075 13.574103 -5.429885 -3.166939 -6.511029 21.236614 3.376864 -29.543167 30.363276 -0.052500 -1.478900 4.067500 -3.089771 2.183188 11.284168 0.818780 1.669042 -14.236946 9.453388 -4.033854 11.814701 3.463500 -1.390600 5.309800 -60.715592 11.759240 27.962208 31.470500 -42.002666 -13.166469 -0.270008 -0.822500 1.265943 -7.125000 0.000000 0.000000 59.719258 0.624280 -2.075152 -28.070167 36.577480 -10.970515 0.364154 1.094369 16.813162 7.125000 0.000000 0.000000 
0.796443 23.544577 -1.064581 -0.823394 -3.424946 2.888005 -13.295370 -4.903535 -10.548249 0.539728 4.809711 13.985256 -2.400428 28.999836 31.617879 0.224800 3.051900 8.423200 20.204339 13.899726 -5.573790 -3.332601 -6.752823 22.044947 3.057959 -28.968640 31.059846 -0.081600 -1.843100 5.072300 -3.489031 2.288374 12.006158 1.029187 1.738029 -14.363873 9.458990 -4.038798 11.781427 3.454400 -1.393100 5.299300 -62.088321 10.943961 25.938893 30.192283 -40.934949 -12.237159 -0.284881 -0.842046 0.912366 -7.125000 0.000000 0.000000 60.161280 0.462310 -1.529883 -27.060732 35.571162 -10.242522 0.413632 1.067493 16.689140 7.125000 0.000000 0.000000 
